# xmcd
#
# Track frame offsets: 
#        150
#        2035
#        23070
#        39382
#        57610
#        72832
#        94322
#        119260
#        138462
#        157440
#        173775
#        178647
#        196327
#        215630
#
# Disc length: 2906 seconds
#
# Revision: 2
# Processed by: cddbd v1.4PL0 Copyright (c) Steve Scherf et al.
# Submitted via: ExactAudioCopy v0.90a11
#
DISCID=cd0b580e
DTITLE=DAG - Righteous
DYEAR=1900
DGENRE=
TTITLE0=Intro
TTITLE1=Sweet Little Lass
TTITLE2=Righteous (City Pain)
TTITLE3=Your Mama's Eyes
TTITLE4=Home
TTITLE5=Lovely Jane
TTITLE6=You Can Lick It (If You Try)
TTITLE7=Even So
TTITLE8=Plow
TTITLE9=Candy
TTITLE10=Sat. Morning
TTITLE11=As
TTITLE12=Do Me Good
TTITLE13=Bonus
EXTD=
EXTT0=
EXTT1=
EXTT2=
EXTT3=
EXTT4=
EXTT5=
EXTT6=
EXTT7=
EXTT8=
EXTT9=
EXTT10=
EXTT11=
EXTT12=
EXTT13=
PLAYORDER=
